<mxfile host="app.diagrams.net" agent="Mozilla/5.0 (Macintosh; Intel Mac OS X 10_15_7) AppleWebKit/537.36 (KHTML, like Gecko) Chrome/134.0.0.0 Safari/537.36 Edg/134.0.0.0" version="26.2.8">
  <diagram name="第 1 页" id="2zaDVK-F3ICybXkd4cO0">
    <mxGraphModel dx="1372" dy="1169" grid="0" gridSize="1" guides="1" tooltips="1" connect="1" arrows="1" fold="1" page="0" pageScale="1" pageWidth="827" pageHeight="1169" math="1" shadow="0">
      <root>
        <mxCell id="0" />
        <mxCell id="1" parent="0" />
        <mxCell id="UObVeRj9jSlFWoimbyzu-144" value="" style="endArrow=none;html=1;rounded=0;endFill=0;dashed=1;dashPattern=8 8;entryX=0.716;entryY=0.471;entryDx=0;entryDy=0;entryPerimeter=0;startFill=0;" parent="1" edge="1">
          <mxGeometry width="50" height="50" relative="1" as="geometry">
            <mxPoint x="817" y="399.77" as="sourcePoint" />
            <mxPoint x="894.6600000000001" y="399.81899999999996" as="targetPoint" />
          </mxGeometry>
        </mxCell>
        <mxCell id="UObVeRj9jSlFWoimbyzu-176" value="" style="endArrow=none;html=1;rounded=0;" parent="1" edge="1">
          <mxGeometry width="50" height="50" relative="1" as="geometry">
            <mxPoint x="360" y="420" as="sourcePoint" />
            <mxPoint x="670" y="420" as="targetPoint" />
          </mxGeometry>
        </mxCell>
        <mxCell id="UObVeRj9jSlFWoimbyzu-164" value="" style="endArrow=open;html=1;rounded=0;endFill=0;" parent="1" edge="1">
          <mxGeometry width="50" height="50" relative="1" as="geometry">
            <mxPoint x="938" y="381" as="sourcePoint" />
            <mxPoint x="1019" y="381" as="targetPoint" />
          </mxGeometry>
        </mxCell>
        <mxCell id="UObVeRj9jSlFWoimbyzu-165" value="" style="endArrow=open;html=1;rounded=0;endFill=0;" parent="1" edge="1">
          <mxGeometry width="50" height="50" relative="1" as="geometry">
            <mxPoint x="892" y="439" as="sourcePoint" />
            <mxPoint x="958" y="439" as="targetPoint" />
          </mxGeometry>
        </mxCell>
        <mxCell id="UObVeRj9jSlFWoimbyzu-166" value="" style="endArrow=open;html=1;rounded=0;endFill=0;entryX=0.899;entryY=0.656;entryDx=0;entryDy=0;entryPerimeter=0;" parent="1" edge="1">
          <mxGeometry width="50" height="50" relative="1" as="geometry">
            <mxPoint x="907" y="421" as="sourcePoint" />
            <mxPoint x="977" y="421" as="targetPoint" />
          </mxGeometry>
        </mxCell>
        <mxCell id="UObVeRj9jSlFWoimbyzu-167" value="" style="endArrow=open;html=1;rounded=0;endFill=0;dashed=1;dashPattern=8 8;entryX=0.716;entryY=0.471;entryDx=0;entryDy=0;entryPerimeter=0;" parent="1" edge="1">
          <mxGeometry width="50" height="50" relative="1" as="geometry">
            <mxPoint x="921" y="400" as="sourcePoint" />
            <mxPoint x="999" y="400" as="targetPoint" />
          </mxGeometry>
        </mxCell>
        <mxCell id="UObVeRj9jSlFWoimbyzu-140" value="" style="endArrow=none;html=1;rounded=0;" parent="1" edge="1">
          <mxGeometry width="50" height="50" relative="1" as="geometry">
            <mxPoint x="580" y="467" as="sourcePoint" />
            <mxPoint x="605" y="436" as="targetPoint" />
          </mxGeometry>
        </mxCell>
        <mxCell id="UObVeRj9jSlFWoimbyzu-136" value="" style="endArrow=none;html=1;rounded=0;" parent="1" edge="1">
          <mxGeometry width="50" height="50" relative="1" as="geometry">
            <mxPoint x="745" y="468" as="sourcePoint" />
            <mxPoint x="770" y="437" as="targetPoint" />
          </mxGeometry>
        </mxCell>
        <mxCell id="UObVeRj9jSlFWoimbyzu-31" value="" style="endArrow=none;html=1;rounded=0;" parent="1" edge="1">
          <mxGeometry width="50" height="50" relative="1" as="geometry">
            <mxPoint x="401" y="380" as="sourcePoint" />
            <mxPoint x="687" y="380" as="targetPoint" />
          </mxGeometry>
        </mxCell>
        <mxCell id="UObVeRj9jSlFWoimbyzu-35" value="&lt;span style=&quot;font-family: SFMono-Regular, Menlo, Monaco, Consolas, &amp;quot;Liberation Mono&amp;quot;, &amp;quot;Courier New&amp;quot;, monospace; font-size: 13px; text-align: left; background-color: rgb(255, 255, 255);&quot;&gt;\(6bits\)&lt;/span&gt;" style="text;html=1;align=center;verticalAlign=middle;whiteSpace=wrap;rounded=0;fontColor=default;" parent="1" vertex="1">
          <mxGeometry x="337" y="442" width="60" height="30" as="geometry" />
        </mxCell>
        <mxCell id="UObVeRj9jSlFWoimbyzu-36" value="&lt;span style=&quot;font-family: SFMono-Regular, Menlo, Monaco, Consolas, &amp;quot;Liberation Mono&amp;quot;, &amp;quot;Courier New&amp;quot;, monospace; font-size: 13px; text-align: left; background-color: rgb(255, 255, 255);&quot;&gt;\(6bits\)&lt;/span&gt;" style="text;html=1;align=center;verticalAlign=middle;whiteSpace=wrap;rounded=0;fontColor=default;" parent="1" vertex="1">
          <mxGeometry x="886.56" y="443" width="60" height="30" as="geometry" />
        </mxCell>
        <mxCell id="UObVeRj9jSlFWoimbyzu-30" value="" style="endArrow=none;html=1;rounded=0;dashed=1;dashPattern=8 8;entryX=0.99;entryY=0.694;entryDx=0;entryDy=0;entryPerimeter=0;" parent="1" edge="1">
          <mxGeometry width="50" height="50" relative="1" as="geometry">
            <mxPoint x="381" y="399" as="sourcePoint" />
            <mxPoint x="666.2673262032085" y="400.14471317829464" as="targetPoint" />
          </mxGeometry>
        </mxCell>
        <mxCell id="UObVeRj9jSlFWoimbyzu-29" value="" style="endArrow=none;html=1;rounded=0;" parent="1" edge="1">
          <mxGeometry width="50" height="50" relative="1" as="geometry">
            <mxPoint x="370" y="420" as="sourcePoint" />
            <mxPoint x="670" y="420" as="targetPoint" />
          </mxGeometry>
        </mxCell>
        <mxCell id="UObVeRj9jSlFWoimbyzu-28" value="" style="endArrow=open;html=1;rounded=0;endFill=0;" parent="1" edge="1">
          <mxGeometry width="50" height="50" relative="1" as="geometry">
            <mxPoint x="340" y="440" as="sourcePoint" />
            <mxPoint x="535" y="440" as="targetPoint" />
          </mxGeometry>
        </mxCell>
        <mxCell id="UObVeRj9jSlFWoimbyzu-181" style="edgeStyle=orthogonalEdgeStyle;rounded=0;orthogonalLoop=1;jettySize=auto;html=1;exitX=0;exitY=0.5;exitDx=0;exitDy=0;entryX=0.25;entryY=1;entryDx=0;entryDy=0;strokeWidth=4;" parent="1" source="UObVeRj9jSlFWoimbyzu-2" target="UObVeRj9jSlFWoimbyzu-174" edge="1">
          <mxGeometry relative="1" as="geometry" />
        </mxCell>
        <mxCell id="UObVeRj9jSlFWoimbyzu-223" style="edgeStyle=orthogonalEdgeStyle;rounded=0;orthogonalLoop=1;jettySize=auto;html=1;exitX=1;exitY=0.5;exitDx=0;exitDy=0;endArrow=none;startFill=1;startArrow=classic;strokeWidth=4;" parent="1" source="UObVeRj9jSlFWoimbyzu-2" edge="1">
          <mxGeometry relative="1" as="geometry">
            <mxPoint x="1039" y="590" as="targetPoint" />
          </mxGeometry>
        </mxCell>
        <mxCell id="UObVeRj9jSlFWoimbyzu-2" value="LLRInTransfer" style="rounded=0;whiteSpace=wrap;html=1;fillColor=#f5f5f5;fontColor=#333333;strokeColor=#000000;fontStyle=1" parent="1" vertex="1">
          <mxGeometry x="887" y="570" width="99" height="41" as="geometry" />
        </mxCell>
        <mxCell id="UObVeRj9jSlFWoimbyzu-16" value="&lt;span style=&quot;font-family: SFMono-Regular, Menlo, Monaco, Consolas, &amp;quot;Liberation Mono&amp;quot;, &amp;quot;Courier New&amp;quot;, monospace; font-size: 13px; text-align: left; background-color: rgb(255, 255, 255);&quot;&gt;$$384 \times 6bits$$&lt;/span&gt;" style="text;html=1;align=center;verticalAlign=middle;whiteSpace=wrap;rounded=0;fontColor=default;" parent="1" vertex="1">
          <mxGeometry x="363" y="518" width="60" height="30" as="geometry" />
        </mxCell>
        <mxCell id="UObVeRj9jSlFWoimbyzu-27" value="" style="shape=cube;whiteSpace=wrap;html=1;boundedLbl=1;backgroundOutline=1;darkOpacity=0.05;darkOpacity2=0.1;size=90;flipH=1;" parent="1" vertex="1">
          <mxGeometry x="396" y="341" width="115" height="119" as="geometry" />
        </mxCell>
        <mxCell id="UObVeRj9jSlFWoimbyzu-33" value="" style="endArrow=none;html=1;rounded=0;" parent="1" edge="1">
          <mxGeometry width="50" height="50" relative="1" as="geometry">
            <mxPoint x="367" y="447" as="sourcePoint" />
            <mxPoint x="377" y="433" as="targetPoint" />
          </mxGeometry>
        </mxCell>
        <mxCell id="UObVeRj9jSlFWoimbyzu-34" value="" style="endArrow=none;html=1;rounded=0;" parent="1" edge="1">
          <mxGeometry width="50" height="50" relative="1" as="geometry">
            <mxPoint x="484" y="447" as="sourcePoint" />
            <mxPoint x="494" y="433" as="targetPoint" />
          </mxGeometry>
        </mxCell>
        <mxCell id="UObVeRj9jSlFWoimbyzu-37" value="384 inputs/outputs" style="text;html=1;align=center;verticalAlign=middle;whiteSpace=wrap;rounded=0;rotation=-45;fontSize=12;" parent="1" vertex="1">
          <mxGeometry x="382" y="365" width="149.12" height="35" as="geometry" />
        </mxCell>
        <mxCell id="UObVeRj9jSlFWoimbyzu-38" value="Cyclic shifter" style="text;html=1;align=center;verticalAlign=middle;whiteSpace=wrap;rounded=0;rotation=-45;fontSize=12;" parent="1" vertex="1">
          <mxGeometry x="393" y="381" width="149.12" height="35" as="geometry" />
        </mxCell>
        <mxCell id="UObVeRj9jSlFWoimbyzu-39" value="&lt;span style=&quot;font-family: SFMono-Regular, Menlo, Monaco, Consolas, &amp;quot;Liberation Mono&amp;quot;, &amp;quot;Courier New&amp;quot;, monospace; font-size: 13px; text-align: left; background-color: rgb(255, 255, 255);&quot;&gt;\(\times6\)&lt;/span&gt;" style="text;html=1;align=center;verticalAlign=middle;whiteSpace=wrap;rounded=0;fontColor=default;" parent="1" vertex="1">
          <mxGeometry x="379" y="431.99" width="60" height="30" as="geometry" />
        </mxCell>
        <mxCell id="UObVeRj9jSlFWoimbyzu-110" value="" style="rounded=0;whiteSpace=wrap;html=1;fillColor=#f5f5f5;fontColor=#333333;strokeColor=#000000;" parent="1" vertex="1">
          <mxGeometry x="550" y="480" width="218" height="40" as="geometry" />
        </mxCell>
        <mxCell id="UObVeRj9jSlFWoimbyzu-111" value="&lt;span style=&quot;font-family: SFMono-Regular, Menlo, Monaco, Consolas, &amp;quot;Liberation Mono&amp;quot;, &amp;quot;Courier New&amp;quot;, monospace; font-size: 13px; text-align: left; background-color: rgb(255, 255, 255);&quot;&gt;\(M_{v2c}\)&lt;/span&gt;&lt;span style=&quot;text-align: left; background-color: rgb(255, 255, 255);&quot;&gt;&lt;b style=&quot;&quot;&gt;&lt;font face=&quot;Helvetica&quot; style=&quot;font-size: 15px;&quot;&gt;FIFO&lt;/font&gt;&lt;/b&gt;&lt;/span&gt;&lt;div&gt;&lt;font style=&quot;&quot;&gt;&lt;span style=&quot;text-align: left; background-color: rgb(255, 255, 255);&quot;&gt;&lt;font face=&quot;Helvetica&quot;&gt;Depth: 19 words&lt;/font&gt;&lt;/span&gt;&lt;/font&gt;&lt;/div&gt;" style="text;html=1;align=center;verticalAlign=middle;whiteSpace=wrap;rounded=0;fontColor=#333333;fillColor=none;strokeColor=none;" parent="1" vertex="1">
          <mxGeometry x="551" y="486" width="217" height="30" as="geometry" />
        </mxCell>
        <mxCell id="UObVeRj9jSlFWoimbyzu-113" value="" style="rounded=0;whiteSpace=wrap;html=1;fillColor=#f5f5f5;fontColor=#333333;strokeColor=#000000;" parent="1" vertex="1">
          <mxGeometry x="572" y="280" width="230" height="41" as="geometry" />
        </mxCell>
        <mxCell id="UObVeRj9jSlFWoimbyzu-127" value="" style="endArrow=open;html=1;rounded=0;endFill=0;startSize=6;endSize=5;" parent="1" edge="1">
          <mxGeometry width="50" height="50" relative="1" as="geometry">
            <mxPoint x="778" y="343" as="sourcePoint" />
            <mxPoint x="778" y="321" as="targetPoint" />
          </mxGeometry>
        </mxCell>
        <mxCell id="UObVeRj9jSlFWoimbyzu-129" value="" style="endArrow=none;html=1;rounded=0;startArrow=open;startFill=0;targetPerimeterSpacing=0;endSize=6;startSize=5;" parent="1" edge="1">
          <mxGeometry width="50" height="50" relative="1" as="geometry">
            <mxPoint x="618" y="343" as="sourcePoint" />
            <mxPoint x="618" y="321" as="targetPoint" />
          </mxGeometry>
        </mxCell>
        <mxCell id="UObVeRj9jSlFWoimbyzu-134" value="" style="endArrow=none;html=1;rounded=0;strokeWidth=1;" parent="1" edge="1">
          <mxGeometry width="50" height="50" relative="1" as="geometry">
            <mxPoint x="615" y="330" as="sourcePoint" />
            <mxPoint x="621" y="325" as="targetPoint" />
          </mxGeometry>
        </mxCell>
        <mxCell id="UObVeRj9jSlFWoimbyzu-135" value="" style="endArrow=none;html=1;rounded=0;strokeWidth=1;" parent="1" edge="1">
          <mxGeometry width="50" height="50" relative="1" as="geometry">
            <mxPoint x="775" y="334" as="sourcePoint" />
            <mxPoint x="781" y="329" as="targetPoint" />
          </mxGeometry>
        </mxCell>
        <mxCell id="UObVeRj9jSlFWoimbyzu-139" value="" style="endArrow=none;html=1;rounded=0;startArrow=open;startFill=0;endSize=2;startSize=6;entryX=0.5;entryY=1;entryDx=0;entryDy=0;endFill=0;" parent="1" edge="1">
          <mxGeometry width="50" height="50" relative="1" as="geometry">
            <mxPoint x="580" y="480" as="sourcePoint" />
            <mxPoint x="580" y="456" as="targetPoint" />
          </mxGeometry>
        </mxCell>
        <mxCell id="UObVeRj9jSlFWoimbyzu-145" value="" style="endArrow=none;html=1;rounded=0;endFill=0;startFill=0;exitX=1.003;exitY=0.449;exitDx=0;exitDy=0;exitPerimeter=0;" parent="1" source="UObVeRj9jSlFWoimbyzu-51" edge="1">
          <mxGeometry width="50" height="50" relative="1" as="geometry">
            <mxPoint x="832" y="380" as="sourcePoint" />
            <mxPoint x="913" y="380" as="targetPoint" />
          </mxGeometry>
        </mxCell>
        <mxCell id="UObVeRj9jSlFWoimbyzu-120" value="" style="endArrow=open;html=1;rounded=0;startArrow=none;startFill=0;endSize=5;startSize=3;endFill=0;entryX=0.807;entryY=1.003;entryDx=0;entryDy=0;entryPerimeter=0;" parent="1" target="UObVeRj9jSlFWoimbyzu-54" edge="1">
          <mxGeometry width="50" height="50" relative="1" as="geometry">
            <mxPoint x="745" y="480" as="sourcePoint" />
            <mxPoint x="745" y="458" as="targetPoint" />
          </mxGeometry>
        </mxCell>
        <mxCell id="UObVeRj9jSlFWoimbyzu-51" value="" style="rounded=0;whiteSpace=wrap;html=1;fillColor=#f5f5f5;fontColor=#333333;strokeColor=#000000;" parent="1" vertex="1">
          <mxGeometry x="572" y="343" width="253.27" height="82.34" as="geometry" />
        </mxCell>
        <mxCell id="UObVeRj9jSlFWoimbyzu-52" value="" style="rounded=0;whiteSpace=wrap;html=1;dashed=1;dashPattern=8 8;fillColor=#f5f5f5;fontColor=#333333;strokeColor=#000000;" parent="1" vertex="1">
          <mxGeometry x="559" y="352.64" width="257.27" height="82.34" as="geometry" />
        </mxCell>
        <mxCell id="UObVeRj9jSlFWoimbyzu-53" value="" style="rounded=0;whiteSpace=wrap;html=1;fillColor=#f5f5f5;fontColor=#333333;strokeColor=#000000;" parent="1" vertex="1">
          <mxGeometry x="548" y="363.15" width="257.27" height="82.34" as="geometry" />
        </mxCell>
        <mxCell id="UObVeRj9jSlFWoimbyzu-54" value="" style="rounded=0;whiteSpace=wrap;html=1;fillColor=#f5f5f5;fontColor=#333333;strokeColor=#000000;" parent="1" vertex="1">
          <mxGeometry x="535" y="373.66" width="260.27" height="82.34" as="geometry" />
        </mxCell>
        <mxCell id="UObVeRj9jSlFWoimbyzu-122" value="" style="endArrow=none;html=1;rounded=0;" parent="1" edge="1">
          <mxGeometry width="50" height="50" relative="1" as="geometry">
            <mxPoint x="756" y="363" as="sourcePoint" />
            <mxPoint x="756" y="355" as="targetPoint" />
          </mxGeometry>
        </mxCell>
        <mxCell id="UObVeRj9jSlFWoimbyzu-138" value="" style="endArrow=none;html=1;rounded=0;" parent="1" edge="1">
          <mxGeometry width="50" height="50" relative="1" as="geometry">
            <mxPoint x="744" y="373.66" as="sourcePoint" />
            <mxPoint x="744" y="365.66" as="targetPoint" />
          </mxGeometry>
        </mxCell>
        <mxCell id="UObVeRj9jSlFWoimbyzu-147" value="" style="shape=cube;whiteSpace=wrap;html=1;boundedLbl=1;backgroundOutline=1;darkOpacity=0.05;darkOpacity2=0.1;size=90;flipH=1;" parent="1" vertex="1">
          <mxGeometry x="845" y="342" width="115" height="119" as="geometry" />
        </mxCell>
        <mxCell id="UObVeRj9jSlFWoimbyzu-141" value="" style="endArrow=open;html=1;rounded=0;endFill=0;startFill=0;" parent="1" edge="1">
          <mxGeometry width="50" height="50" relative="1" as="geometry">
            <mxPoint x="795" y="438" as="sourcePoint" />
            <mxPoint x="845" y="438" as="targetPoint" />
          </mxGeometry>
        </mxCell>
        <mxCell id="UObVeRj9jSlFWoimbyzu-143" value="" style="endArrow=none;html=1;rounded=0;endFill=0;entryX=0.899;entryY=0.656;entryDx=0;entryDy=0;entryPerimeter=0;startFill=0;" parent="1" target="UObVeRj9jSlFWoimbyzu-147" edge="1">
          <mxGeometry width="50" height="50" relative="1" as="geometry">
            <mxPoint x="806" y="420" as="sourcePoint" />
            <mxPoint x="869" y="420" as="targetPoint" />
          </mxGeometry>
        </mxCell>
        <mxCell id="UObVeRj9jSlFWoimbyzu-128" value="" style="endArrow=none;html=1;rounded=0;" parent="1" edge="1">
          <mxGeometry width="50" height="50" relative="1" as="geometry">
            <mxPoint x="584" y="366.08" as="sourcePoint" />
            <mxPoint x="618" y="333.93" as="targetPoint" />
          </mxGeometry>
        </mxCell>
        <mxCell id="UObVeRj9jSlFWoimbyzu-161" value="" style="endArrow=none;html=1;rounded=0;" parent="1" edge="1">
          <mxGeometry width="50" height="50" relative="1" as="geometry">
            <mxPoint x="744" y="366.08" as="sourcePoint" />
            <mxPoint x="778" y="333.93" as="targetPoint" />
          </mxGeometry>
        </mxCell>
        <mxCell id="UObVeRj9jSlFWoimbyzu-162" value="Reverse cyclic shifter" style="text;html=1;align=center;verticalAlign=middle;whiteSpace=wrap;rounded=0;rotation=-45;fontSize=12;" parent="1" vertex="1">
          <mxGeometry x="842" y="381" width="149.12" height="35" as="geometry" />
        </mxCell>
        <mxCell id="UObVeRj9jSlFWoimbyzu-163" value="384 inputs/outputs" style="text;html=1;align=center;verticalAlign=middle;whiteSpace=wrap;rounded=0;rotation=-45;fontSize=12;" parent="1" vertex="1">
          <mxGeometry x="833" y="365" width="149.12" height="35" as="geometry" />
        </mxCell>
        <mxCell id="UObVeRj9jSlFWoimbyzu-168" value="&lt;span style=&quot;font-family: SFMono-Regular, Menlo, Monaco, Consolas, &amp;quot;Liberation Mono&amp;quot;, &amp;quot;Courier New&amp;quot;, monospace; font-size: 13px; text-align: left; background-color: rgb(255, 255, 255);&quot;&gt;\(\times6\)&lt;/span&gt;" style="text;html=1;align=center;verticalAlign=middle;whiteSpace=wrap;rounded=0;fontColor=default;" parent="1" vertex="1">
          <mxGeometry x="827" y="431.99" width="60" height="30" as="geometry" />
        </mxCell>
        <mxCell id="UObVeRj9jSlFWoimbyzu-169" value="" style="endArrow=none;html=1;rounded=0;" parent="1" edge="1">
          <mxGeometry width="50" height="50" relative="1" as="geometry">
            <mxPoint x="951" y="446" as="sourcePoint" />
            <mxPoint x="1022" y="378" as="targetPoint" />
          </mxGeometry>
        </mxCell>
        <mxCell id="UObVeRj9jSlFWoimbyzu-179" style="edgeStyle=orthogonalEdgeStyle;rounded=0;orthogonalLoop=1;jettySize=auto;html=1;exitX=0.5;exitY=0;exitDx=0;exitDy=0;entryX=1;entryY=0.5;entryDx=0;entryDy=0;strokeWidth=4;" parent="1" source="UObVeRj9jSlFWoimbyzu-174" target="UObVeRj9jSlFWoimbyzu-177" edge="1">
          <mxGeometry relative="1" as="geometry" />
        </mxCell>
        <mxCell id="UObVeRj9jSlFWoimbyzu-174" value="" style="shape=trapezoid;perimeter=trapezoidPerimeter;whiteSpace=wrap;html=1;fixedSize=1;rotation=-90;size=23;" parent="1" vertex="1">
          <mxGeometry x="767" y="549" width="84" height="40.5" as="geometry" />
        </mxCell>
        <mxCell id="UObVeRj9jSlFWoimbyzu-175" value="" style="endArrow=none;html=1;rounded=0;" parent="1" edge="1">
          <mxGeometry width="50" height="50" relative="1" as="geometry">
            <mxPoint x="333" y="445.49" as="sourcePoint" />
            <mxPoint x="406" y="375" as="targetPoint" />
          </mxGeometry>
        </mxCell>
        <mxCell id="UObVeRj9jSlFWoimbyzu-187" style="edgeStyle=orthogonalEdgeStyle;rounded=0;orthogonalLoop=1;jettySize=auto;html=1;exitX=0;exitY=0.5;exitDx=0;exitDy=0;entryX=0.5;entryY=0;entryDx=0;entryDy=0;strokeWidth=4;" parent="1" source="UObVeRj9jSlFWoimbyzu-177" target="UObVeRj9jSlFWoimbyzu-184" edge="1">
          <mxGeometry relative="1" as="geometry" />
        </mxCell>
        <mxCell id="UObVeRj9jSlFWoimbyzu-177" value="&lt;b&gt;LLR RAM&lt;/b&gt;&lt;div&gt;&lt;font style=&quot;font-size: 11px;&quot;&gt;(Depth: 68 words)&lt;/font&gt;&lt;/div&gt;" style="rounded=0;whiteSpace=wrap;html=1;fillColor=#f5f5f5;fontColor=#333333;strokeColor=#000000;" parent="1" vertex="1">
          <mxGeometry x="616" y="539.25" width="120" height="60.75" as="geometry" />
        </mxCell>
        <mxCell id="UObVeRj9jSlFWoimbyzu-178" value="" style="edgeStyle=segmentEdgeStyle;endArrow=classic;html=1;curved=0;rounded=0;endSize=8;startSize=8;entryX=0.75;entryY=1;entryDx=0;entryDy=0;strokeWidth=4;" parent="1" target="UObVeRj9jSlFWoimbyzu-174" edge="1">
          <mxGeometry width="50" height="50" relative="1" as="geometry">
            <mxPoint x="987" y="412" as="sourcePoint" />
            <mxPoint x="1028" y="509" as="targetPoint" />
            <Array as="points">
              <mxPoint x="1016" y="412" />
              <mxPoint x="1016" y="548" />
            </Array>
          </mxGeometry>
        </mxCell>
        <mxCell id="UObVeRj9jSlFWoimbyzu-183" value="" style="edgeStyle=elbowEdgeStyle;elbow=horizontal;endArrow=classic;html=1;curved=0;rounded=0;endSize=8;startSize=8;exitX=0.25;exitY=1;exitDx=0;exitDy=0;strokeWidth=4;" parent="1" source="UObVeRj9jSlFWoimbyzu-184" edge="1">
          <mxGeometry width="50" height="50" relative="1" as="geometry">
            <mxPoint x="304" y="585" as="sourcePoint" />
            <mxPoint x="371" y="406" as="targetPoint" />
            <Array as="points">
              <mxPoint x="315" y="488" />
            </Array>
          </mxGeometry>
        </mxCell>
        <mxCell id="UObVeRj9jSlFWoimbyzu-189" style="edgeStyle=orthogonalEdgeStyle;rounded=0;orthogonalLoop=1;jettySize=auto;html=1;exitX=0.75;exitY=1;exitDx=0;exitDy=0;entryX=1;entryY=0.5;entryDx=0;entryDy=0;strokeWidth=4;" parent="1" source="UObVeRj9jSlFWoimbyzu-184" target="UObVeRj9jSlFWoimbyzu-188" edge="1">
          <mxGeometry relative="1" as="geometry" />
        </mxCell>
        <mxCell id="UObVeRj9jSlFWoimbyzu-184" value="" style="shape=trapezoid;perimeter=trapezoidPerimeter;whiteSpace=wrap;html=1;fixedSize=1;rotation=90;size=23;" parent="1" vertex="1">
          <mxGeometry x="477" y="549" width="84" height="40.5" as="geometry" />
        </mxCell>
        <mxCell id="UObVeRj9jSlFWoimbyzu-188" value="LLROutTransfer" style="rounded=0;whiteSpace=wrap;html=1;fillColor=#f5f5f5;fontColor=#333333;strokeColor=#000000;fontStyle=1" parent="1" vertex="1">
          <mxGeometry x="348" y="567" width="99" height="46" as="geometry" />
        </mxCell>
        <mxCell id="UObVeRj9jSlFWoimbyzu-191" value="" style="endArrow=none;html=1;rounded=0;" parent="1" edge="1">
          <mxGeometry width="50" height="50" relative="1" as="geometry">
            <mxPoint x="822" y="445.49" as="sourcePoint" />
            <mxPoint x="832" y="431.49" as="targetPoint" />
          </mxGeometry>
        </mxCell>
        <mxCell id="UObVeRj9jSlFWoimbyzu-192" value="" style="endArrow=none;html=1;rounded=0;" parent="1" edge="1">
          <mxGeometry width="50" height="50" relative="1" as="geometry">
            <mxPoint x="916" y="445.49" as="sourcePoint" />
            <mxPoint x="926" y="431.49" as="targetPoint" />
          </mxGeometry>
        </mxCell>
        <mxCell id="UObVeRj9jSlFWoimbyzu-194" value="&lt;span style=&quot;font-family: SFMono-Regular, Menlo, Monaco, Consolas, &amp;quot;Liberation Mono&amp;quot;, &amp;quot;Courier New&amp;quot;, monospace; font-size: 13px; text-align: left; background-color: rgb(255, 255, 255);&quot;&gt;\(6bits\)&lt;/span&gt;" style="text;html=1;align=center;verticalAlign=middle;whiteSpace=wrap;rounded=0;fontColor=default;" parent="1" vertex="1">
          <mxGeometry x="456" y="442" width="60" height="30" as="geometry" />
        </mxCell>
        <mxCell id="UObVeRj9jSlFWoimbyzu-195" value="&lt;span style=&quot;font-family: SFMono-Regular, Menlo, Monaco, Consolas, &amp;quot;Liberation Mono&amp;quot;, &amp;quot;Courier New&amp;quot;, monospace; font-size: 13px; text-align: left; background-color: rgb(255, 255, 255);&quot;&gt;\(6bits\)&lt;/span&gt;" style="text;html=1;align=center;verticalAlign=middle;whiteSpace=wrap;rounded=0;fontColor=default;" parent="1" vertex="1">
          <mxGeometry x="791" y="443" width="60" height="30" as="geometry" />
        </mxCell>
        <mxCell id="UObVeRj9jSlFWoimbyzu-199" value="&lt;span style=&quot;font-family: SFMono-Regular, Menlo, Monaco, Consolas, &amp;quot;Liberation Mono&amp;quot;, &amp;quot;Courier New&amp;quot;, monospace; font-size: 13px; text-align: left; background-color: rgb(255, 255, 255);&quot;&gt;$$384 \times 6bits$$&lt;/span&gt;" style="text;html=1;align=center;verticalAlign=middle;whiteSpace=wrap;rounded=0;fontColor=default;" parent="1" vertex="1">
          <mxGeometry x="887" y="519" width="60" height="30" as="geometry" />
        </mxCell>
        <mxCell id="UObVeRj9jSlFWoimbyzu-203" value="&lt;span style=&quot;font-family: SFMono-Regular, Menlo, Monaco, Consolas, &amp;quot;Liberation Mono&amp;quot;, &amp;quot;Courier New&amp;quot;, monospace; font-size: 13px; text-align: left; background-color: rgb(255, 255, 255);&quot;&gt;&lt;b&gt;\(\times 384\)&lt;/b&gt;&lt;/span&gt;" style="text;html=1;align=center;verticalAlign=middle;whiteSpace=wrap;rounded=0;rotation=-40;fontSize=12;" parent="1" vertex="1">
          <mxGeometry x="506" y="317.64" width="60.06" height="35" as="geometry" />
        </mxCell>
        <mxCell id="UObVeRj9jSlFWoimbyzu-159" value="" style="endArrow=none;html=1;rounded=0;" parent="1" edge="1">
          <mxGeometry width="50" height="50" relative="1" as="geometry">
            <mxPoint x="584" y="373.66" as="sourcePoint" />
            <mxPoint x="584" y="365.66" as="targetPoint" />
          </mxGeometry>
        </mxCell>
        <mxCell id="UObVeRj9jSlFWoimbyzu-160" value="" style="endArrow=none;html=1;rounded=0;" parent="1" edge="1">
          <mxGeometry width="50" height="50" relative="1" as="geometry">
            <mxPoint x="596" y="363.15" as="sourcePoint" />
            <mxPoint x="596" y="355.15" as="targetPoint" />
          </mxGeometry>
        </mxCell>
        <mxCell id="UObVeRj9jSlFWoimbyzu-202" value="" style="shape=curlyBracket;whiteSpace=wrap;html=1;rounded=1;labelPosition=left;verticalLabelPosition=middle;align=right;verticalAlign=middle;rotation=50;" parent="1" vertex="1">
          <mxGeometry x="536" y="323.44" width="20" height="51" as="geometry" />
        </mxCell>
        <mxCell id="UObVeRj9jSlFWoimbyzu-279" style="edgeStyle=orthogonalEdgeStyle;rounded=0;orthogonalLoop=1;jettySize=auto;html=1;exitX=1;exitY=0.5;exitDx=0;exitDy=0;entryX=0.5;entryY=0;entryDx=0;entryDy=0;endSize=2;" parent="1" source="UObVeRj9jSlFWoimbyzu-209" target="UObVeRj9jSlFWoimbyzu-211" edge="1">
          <mxGeometry relative="1" as="geometry" />
        </mxCell>
        <mxCell id="UObVeRj9jSlFWoimbyzu-209" value="&lt;b&gt;VNU&lt;/b&gt;" style="rounded=0;whiteSpace=wrap;html=1;" parent="1" vertex="1">
          <mxGeometry x="550" y="378.83" width="76" height="72" as="geometry" />
        </mxCell>
        <mxCell id="UObVeRj9jSlFWoimbyzu-210" value="&lt;b&gt;CNU&lt;/b&gt;" style="rounded=0;whiteSpace=wrap;html=1;" parent="1" vertex="1">
          <mxGeometry x="705" y="378.83" width="76" height="72" as="geometry" />
        </mxCell>
        <mxCell id="UObVeRj9jSlFWoimbyzu-211" value="Decoupling FIFO buffer" style="rounded=0;whiteSpace=wrap;html=1;rotation=-90;fontSize=10;" parent="1" vertex="1">
          <mxGeometry x="617" y="400.43" width="72.12" height="27.14" as="geometry" />
        </mxCell>
        <mxCell id="UObVeRj9jSlFWoimbyzu-214" value="sign" style="rounded=0;whiteSpace=wrap;html=1;fontSize=10;" parent="1" vertex="1">
          <mxGeometry x="666" y="377.99" width="25" height="18" as="geometry" />
        </mxCell>
        <mxCell id="UObVeRj9jSlFWoimbyzu-215" value="min0" style="rounded=0;whiteSpace=wrap;html=1;fontSize=10;" parent="1" vertex="1">
          <mxGeometry x="666" y="395.99" width="25" height="18" as="geometry" />
        </mxCell>
        <mxCell id="UObVeRj9jSlFWoimbyzu-280" style="edgeStyle=orthogonalEdgeStyle;rounded=0;orthogonalLoop=1;jettySize=auto;html=1;exitX=1;exitY=0;exitDx=0;exitDy=0;entryX=0;entryY=0.5;entryDx=0;entryDy=0;endSize=2;" parent="1" source="UObVeRj9jSlFWoimbyzu-216" target="UObVeRj9jSlFWoimbyzu-210" edge="1">
          <mxGeometry relative="1" as="geometry" />
        </mxCell>
        <mxCell id="UObVeRj9jSlFWoimbyzu-216" value="min1" style="rounded=0;whiteSpace=wrap;html=1;fontSize=10;" parent="1" vertex="1">
          <mxGeometry x="666" y="413.99" width="25" height="18" as="geometry" />
        </mxCell>
        <mxCell id="UObVeRj9jSlFWoimbyzu-217" value="idx0" style="rounded=0;whiteSpace=wrap;html=1;fontSize=10;" parent="1" vertex="1">
          <mxGeometry x="666" y="431.99" width="25" height="18" as="geometry" />
        </mxCell>
        <mxCell id="UObVeRj9jSlFWoimbyzu-225" value="&lt;span style=&quot;font-family: SFMono-Regular, Menlo, Monaco, Consolas, &amp;quot;Liberation Mono&amp;quot;, &amp;quot;Courier New&amp;quot;, monospace; font-size: 13px; text-align: left; background-color: rgb(255, 255, 255);&quot;&gt;$$256bits$$&lt;/span&gt;" style="text;html=1;align=center;verticalAlign=middle;whiteSpace=wrap;rounded=0;fontColor=default;" parent="1" vertex="1">
          <mxGeometry x="985" y="554.63" width="60" height="30" as="geometry" />
        </mxCell>
        <mxCell id="UObVeRj9jSlFWoimbyzu-230" value="&lt;span style=&quot;font-family: SFMono-Regular, Menlo, Monaco, Consolas, &amp;quot;Liberation Mono&amp;quot;, &amp;quot;Courier New&amp;quot;, monospace; font-size: 13px; text-align: left; background-color: rgb(255, 255, 255);&quot;&gt;\(384 \times 6\)&lt;/span&gt;&lt;div&gt;&lt;span style=&quot;font-family: SFMono-Regular, Menlo, Monaco, Consolas, &amp;quot;Liberation Mono&amp;quot;, &amp;quot;Courier New&amp;quot;, monospace; font-size: 13px; text-align: left; background-color: rgb(255, 255, 255);&quot;&gt;\(bits\)&lt;/span&gt;&lt;/div&gt;" style="text;html=1;align=center;verticalAlign=middle;whiteSpace=wrap;rounded=0;fontColor=default;" parent="1" vertex="1">
          <mxGeometry x="444" y="599" width="60" height="30" as="geometry" />
        </mxCell>
        <mxCell id="UObVeRj9jSlFWoimbyzu-232" value="&lt;span style=&quot;font-family: SFMono-Regular, Menlo, Monaco, Consolas, &amp;quot;Liberation Mono&amp;quot;, &amp;quot;Courier New&amp;quot;, monospace; font-size: 13px; text-align: left; background-color: rgb(255, 255, 255);&quot;&gt;$$128bits$$&lt;/span&gt;" style="text;html=1;align=center;verticalAlign=middle;whiteSpace=wrap;rounded=0;fontColor=default;" parent="1" vertex="1">
          <mxGeometry x="292" y="558" width="60" height="30" as="geometry" />
        </mxCell>
        <mxCell id="UObVeRj9jSlFWoimbyzu-233" value="(idx0, min0, min1)RAM&lt;div&gt;&lt;font style=&quot;font-size: 10px;&quot;&gt;Depth: 48words&lt;/font&gt;&lt;/div&gt;" style="rounded=0;whiteSpace=wrap;html=1;" parent="1" vertex="1">
          <mxGeometry x="577" y="286" width="130" height="29" as="geometry" />
        </mxCell>
        <mxCell id="UObVeRj9jSlFWoimbyzu-234" value="signsRAM&lt;div&gt;&lt;font style=&quot;font-size: 10px;&quot;&gt;Depth: 316words&lt;/font&gt;&lt;/div&gt;" style="rounded=0;whiteSpace=wrap;html=1;" parent="1" vertex="1">
          <mxGeometry x="714" y="286" width="82" height="29" as="geometry" />
        </mxCell>
        <mxCell id="UObVeRj9jSlFWoimbyzu-114" value="&lt;span style=&quot;font-family: SFMono-Regular, Menlo, Monaco, Consolas, &amp;quot;Liberation Mono&amp;quot;, &amp;quot;Courier New&amp;quot;, monospace; font-size: 13px; text-align: left; background-color: rgb(255, 255, 255);&quot;&gt;\(M_{c2v}^{prevIter}\)&lt;/span&gt;&lt;span style=&quot;font-family: SFMono-Regular, Menlo, Monaco, Consolas, &amp;quot;Liberation Mono&amp;quot;, &amp;quot;Courier New&amp;quot;, monospace; text-align: left; background-color: rgb(255, 255, 255); font-size: 15px;&quot;&gt;&lt;b&gt;RAMs&lt;/b&gt;&lt;/span&gt;" style="text;html=1;align=center;verticalAlign=middle;whiteSpace=wrap;rounded=0;" parent="1" vertex="1">
          <mxGeometry x="799" y="285.5" width="116" height="30" as="geometry" />
        </mxCell>
        <mxCell id="UObVeRj9jSlFWoimbyzu-235" value="&lt;span style=&quot;font-family: SFMono-Regular, Menlo, Monaco, Consolas, &amp;quot;Liberation Mono&amp;quot;, &amp;quot;Courier New&amp;quot;, monospace; text-align: left; background-color: rgb(255, 255, 255);&quot;&gt;\(12bits\)&lt;/span&gt;" style="text;html=1;align=center;verticalAlign=middle;whiteSpace=wrap;rounded=0;fontColor=default;fontSize=11;" parent="1" vertex="1">
          <mxGeometry x="611" y="315.5" width="60" height="30" as="geometry" />
        </mxCell>
        <mxCell id="UObVeRj9jSlFWoimbyzu-236" value="&lt;span style=&quot;font-family: SFMono-Regular, Menlo, Monaco, Consolas, &amp;quot;Liberation Mono&amp;quot;, &amp;quot;Courier New&amp;quot;, monospace; text-align: left; background-color: rgb(255, 255, 255);&quot;&gt;\(7bits\)&lt;/span&gt;" style="text;html=1;align=center;verticalAlign=middle;whiteSpace=wrap;rounded=0;fontColor=default;fontSize=11;" parent="1" vertex="1">
          <mxGeometry x="575" y="453" width="60" height="30" as="geometry" />
        </mxCell>
        <mxCell id="UObVeRj9jSlFWoimbyzu-237" value="&lt;span style=&quot;font-family: SFMono-Regular, Menlo, Monaco, Consolas, &amp;quot;Liberation Mono&amp;quot;, &amp;quot;Courier New&amp;quot;, monospace; text-align: left; background-color: rgb(255, 255, 255);&quot;&gt;NewC2VMsg&lt;/span&gt;" style="text;html=1;align=center;verticalAlign=middle;whiteSpace=wrap;rounded=0;fontColor=default;fontSize=10;" parent="1" vertex="1">
          <mxGeometry x="713" y="315.5" width="60" height="30" as="geometry" />
        </mxCell>
        <mxCell id="UObVeRj9jSlFWoimbyzu-238" value="&lt;span style=&quot;font-family: SFMono-Regular, Menlo, Monaco, Consolas, &amp;quot;Liberation Mono&amp;quot;, &amp;quot;Courier New&amp;quot;, monospace; text-align: left; background-color: rgb(255, 255, 255);&quot;&gt;DelayedV2CMsg&lt;/span&gt;" style="text;html=1;align=center;verticalAlign=middle;whiteSpace=wrap;rounded=0;fontColor=default;fontSize=10;" parent="1" vertex="1">
          <mxGeometry x="659.5" y="453" width="86" height="30" as="geometry" />
        </mxCell>
        <mxCell id="UObVeRj9jSlFWoimbyzu-255" value="Global&amp;nbsp;&lt;span style=&quot;background-color: transparent; color: light-dark(rgb(51, 51, 51), rgb(193, 193, 193));&quot;&gt;Controler&amp;nbsp;&lt;/span&gt;&lt;div&gt;&lt;span style=&quot;background-color: transparent; color: light-dark(rgb(51, 51, 51), rgb(193, 193, 193));&quot;&gt;Unit&lt;/span&gt;&lt;span style=&quot;background-color: transparent; color: light-dark(rgb(51, 51, 51), rgb(193, 193, 193));&quot;&gt;(&lt;/span&gt;&lt;b style=&quot;background-color: transparent; color: light-dark(rgb(51, 51, 51), rgb(193, 193, 193));&quot;&gt;GCU&lt;/b&gt;&lt;span style=&quot;background-color: transparent; color: light-dark(rgb(51, 51, 51), rgb(193, 193, 193));&quot;&gt;)&lt;/span&gt;&lt;/div&gt;" style="rounded=0;whiteSpace=wrap;html=1;fillColor=#f5f5f5;fontColor=#333333;strokeColor=#000000;" parent="1" vertex="1">
          <mxGeometry x="805.27" y="476" width="110" height="43" as="geometry" />
        </mxCell>
        <mxCell id="UObVeRj9jSlFWoimbyzu-263" value="" style="group;rotation=0;" parent="1" vertex="1" connectable="0">
          <mxGeometry x="523" y="279" width="52" height="42" as="geometry" />
        </mxCell>
        <mxCell id="UObVeRj9jSlFWoimbyzu-259" value="" style="endArrow=open;html=1;rounded=0;endFill=0;" parent="UObVeRj9jSlFWoimbyzu-263" edge="1">
          <mxGeometry width="50" height="50" relative="1" as="geometry">
            <mxPoint x="6" y="21" as="sourcePoint" />
            <mxPoint x="46" y="21" as="targetPoint" />
          </mxGeometry>
        </mxCell>
        <mxCell id="UObVeRj9jSlFWoimbyzu-261" value="Rd/Wr&amp;nbsp;&lt;div&gt;Ctrl&lt;/div&gt;" style="text;html=1;align=center;verticalAlign=middle;resizable=0;points=[];autosize=1;strokeColor=none;fillColor=none;rotation=0;" parent="UObVeRj9jSlFWoimbyzu-263" vertex="1">
          <mxGeometry x="-3" y="1" width="55" height="41" as="geometry" />
        </mxCell>
        <mxCell id="UObVeRj9jSlFWoimbyzu-264" value="" style="group;rotation=0;fontColor=default;" parent="1" vertex="1" connectable="0">
          <mxGeometry x="425" y="331.66" width="49" height="42" as="geometry" />
        </mxCell>
        <mxCell id="UObVeRj9jSlFWoimbyzu-265" value="" style="endArrow=open;html=1;rounded=0;endFill=0;" parent="UObVeRj9jSlFWoimbyzu-264" edge="1">
          <mxGeometry width="50" height="50" relative="1" as="geometry">
            <mxPoint x="6" y="21" as="sourcePoint" />
            <mxPoint x="46" y="22" as="targetPoint" />
          </mxGeometry>
        </mxCell>
        <mxCell id="UObVeRj9jSlFWoimbyzu-266" value="Shift&amp;nbsp;&lt;div&gt;Ctrl&lt;/div&gt;" style="text;html=1;align=center;verticalAlign=middle;resizable=0;points=[];autosize=1;strokeColor=none;fillColor=none;rotation=0;" parent="UObVeRj9jSlFWoimbyzu-264" vertex="1">
          <mxGeometry x="2" width="46" height="42" as="geometry" />
        </mxCell>
        <mxCell id="UObVeRj9jSlFWoimbyzu-267" value="" style="group;rotation=0;" parent="1" vertex="1" connectable="0">
          <mxGeometry x="869" y="333" width="56" height="42" as="geometry" />
        </mxCell>
        <mxCell id="UObVeRj9jSlFWoimbyzu-268" value="" style="endArrow=open;html=1;rounded=0;endFill=0;" parent="UObVeRj9jSlFWoimbyzu-267" edge="1">
          <mxGeometry width="50" height="50" relative="1" as="geometry">
            <mxPoint x="6" y="23" as="sourcePoint" />
            <mxPoint x="46" y="23" as="targetPoint" />
          </mxGeometry>
        </mxCell>
        <mxCell id="UObVeRj9jSlFWoimbyzu-269" value="ReShift&amp;nbsp;&lt;div&gt;Ctrl&lt;/div&gt;" style="text;html=1;align=center;verticalAlign=middle;resizable=0;points=[];autosize=1;strokeColor=none;fillColor=none;rotation=0;" parent="UObVeRj9jSlFWoimbyzu-267" vertex="1">
          <mxGeometry x="-6" y="2" width="62" height="42" as="geometry" />
        </mxCell>
        <mxCell id="UObVeRj9jSlFWoimbyzu-273" value="" style="group;rotation=0;" parent="1" vertex="1" connectable="0">
          <mxGeometry x="567" y="529" width="52" height="42" as="geometry" />
        </mxCell>
        <mxCell id="UObVeRj9jSlFWoimbyzu-274" value="" style="endArrow=open;html=1;rounded=0;endFill=0;" parent="UObVeRj9jSlFWoimbyzu-273" edge="1">
          <mxGeometry width="50" height="50" relative="1" as="geometry">
            <mxPoint x="6" y="21" as="sourcePoint" />
            <mxPoint x="46" y="21" as="targetPoint" />
          </mxGeometry>
        </mxCell>
        <mxCell id="UObVeRj9jSlFWoimbyzu-275" value="Rd/Wr&amp;nbsp;&lt;div&gt;Ctrl&lt;/div&gt;" style="text;html=1;align=center;verticalAlign=middle;resizable=0;points=[];autosize=1;strokeColor=none;fillColor=none;rotation=0;" parent="UObVeRj9jSlFWoimbyzu-273" vertex="1">
          <mxGeometry x="-3" y="1" width="55" height="41" as="geometry" />
        </mxCell>
        <mxCell id="UObVeRj9jSlFWoimbyzu-304" value="" style="endArrow=none;html=1;rounded=0;" parent="UObVeRj9jSlFWoimbyzu-273" edge="1">
          <mxGeometry width="50" height="50" relative="1" as="geometry">
            <mxPoint x="8" y="48" as="sourcePoint" />
            <mxPoint x="18" y="34" as="targetPoint" />
          </mxGeometry>
        </mxCell>
        <mxCell id="UObVeRj9jSlFWoimbyzu-277" value="" style="endArrow=open;html=1;rounded=0;endFill=0;" parent="1" edge="1">
          <mxGeometry width="50" height="50" relative="1" as="geometry">
            <mxPoint x="494" y="500" as="sourcePoint" />
            <mxPoint x="547" y="500" as="targetPoint" />
          </mxGeometry>
        </mxCell>
        <mxCell id="UObVeRj9jSlFWoimbyzu-278" value="Enq/Deq&amp;nbsp;&lt;div&gt;Ctrl&lt;/div&gt;" style="text;html=1;align=center;verticalAlign=middle;resizable=0;points=[];autosize=1;strokeColor=none;fillColor=none;rotation=0;" parent="1" vertex="1">
          <mxGeometry x="481" y="479" width="69" height="42" as="geometry" />
        </mxCell>
        <mxCell id="UObVeRj9jSlFWoimbyzu-281" value="&lt;span style=&quot;font-family: SFMono-Regular, Menlo, Monaco, Consolas, &amp;quot;Liberation Mono&amp;quot;, &amp;quot;Courier New&amp;quot;, monospace; font-size: 13px; text-align: left; background-color: rgb(255, 255, 255);&quot;&gt;\(384 \times 6\)&lt;/span&gt;&lt;div&gt;&lt;span style=&quot;font-family: SFMono-Regular, Menlo, Monaco, Consolas, &amp;quot;Liberation Mono&amp;quot;, &amp;quot;Courier New&amp;quot;, monospace; font-size: 13px; text-align: left; background-color: rgb(255, 255, 255);&quot;&gt;\(bits\)&lt;/span&gt;&lt;/div&gt;" style="text;html=1;align=center;verticalAlign=middle;whiteSpace=wrap;rounded=0;fontColor=default;" parent="1" vertex="1">
          <mxGeometry x="734" y="587" width="60" height="30" as="geometry" />
        </mxCell>
        <mxCell id="UObVeRj9jSlFWoimbyzu-282" value="&lt;span style=&quot;font-family: SFMono-Regular, Menlo, Monaco, Consolas, &amp;quot;Liberation Mono&amp;quot;, &amp;quot;Courier New&amp;quot;, monospace; font-size: 13px; text-align: left; background-color: rgb(255, 255, 255);&quot;&gt;\(384 \times 6\)&lt;/span&gt;&lt;div&gt;&lt;span style=&quot;font-family: SFMono-Regular, Menlo, Monaco, Consolas, &amp;quot;Liberation Mono&amp;quot;, &amp;quot;Courier New&amp;quot;, monospace; font-size: 13px; text-align: left; background-color: rgb(255, 255, 255);&quot;&gt;\(bits\)&lt;/span&gt;&lt;/div&gt;" style="text;html=1;align=center;verticalAlign=middle;whiteSpace=wrap;rounded=0;fontColor=default;" parent="1" vertex="1">
          <mxGeometry x="551" y="583" width="60" height="30" as="geometry" />
        </mxCell>
        <mxCell id="UObVeRj9jSlFWoimbyzu-283" value="&lt;span style=&quot;font-family: SFMono-Regular, Menlo, Monaco, Consolas, &amp;quot;Liberation Mono&amp;quot;, &amp;quot;Courier New&amp;quot;, monospace; font-size: 13px; text-align: left; background-color: rgb(255, 255, 255);&quot;&gt;\(384 \times 6\)&lt;/span&gt;&lt;div&gt;&lt;span style=&quot;font-family: SFMono-Regular, Menlo, Monaco, Consolas, &amp;quot;Liberation Mono&amp;quot;, &amp;quot;Courier New&amp;quot;, monospace; font-size: 13px; text-align: left; background-color: rgb(255, 255, 255);&quot;&gt;\(bits\)&lt;/span&gt;&lt;/div&gt;" style="text;html=1;align=center;verticalAlign=middle;whiteSpace=wrap;rounded=0;fontColor=default;" parent="1" vertex="1">
          <mxGeometry x="825.27" y="600" width="60" height="30" as="geometry" />
        </mxCell>
        <mxCell id="UObVeRj9jSlFWoimbyzu-287" value="(from &lt;b&gt;GCU)&lt;/b&gt;" style="text;html=1;align=center;verticalAlign=middle;whiteSpace=wrap;rounded=0;" parent="1" vertex="1">
          <mxGeometry x="461" y="285" width="67" height="30" as="geometry" />
        </mxCell>
        <mxCell id="UObVeRj9jSlFWoimbyzu-288" value="(from &lt;b&gt;GCU)&lt;/b&gt;" style="text;html=1;align=center;verticalAlign=middle;whiteSpace=wrap;rounded=0;" parent="1" vertex="1">
          <mxGeometry x="425" y="483" width="67" height="30" as="geometry" />
        </mxCell>
        <mxCell id="UObVeRj9jSlFWoimbyzu-289" value="(from&amp;nbsp;&lt;div&gt;&lt;b&gt;GCU)&lt;/b&gt;&lt;/div&gt;" style="text;html=1;align=center;verticalAlign=middle;whiteSpace=wrap;rounded=0;" parent="1" vertex="1">
          <mxGeometry x="833" y="341" width="46" height="30" as="geometry" />
        </mxCell>
        <mxCell id="UObVeRj9jSlFWoimbyzu-290" value="(from&amp;nbsp;&lt;div&gt;&lt;b&gt;GCU)&lt;/b&gt;&lt;/div&gt;" style="text;html=1;align=center;verticalAlign=middle;whiteSpace=wrap;rounded=0;" parent="1" vertex="1">
          <mxGeometry x="534" y="535" width="46" height="30" as="geometry" />
        </mxCell>
        <mxCell id="UObVeRj9jSlFWoimbyzu-296" value="(from &lt;b&gt;GCU)&lt;/b&gt;" style="text;html=1;align=center;verticalAlign=middle;whiteSpace=wrap;rounded=0;" parent="1" vertex="1">
          <mxGeometry x="363" y="337.65999999999997" width="67" height="30" as="geometry" />
        </mxCell>
        <mxCell id="UObVeRj9jSlFWoimbyzu-297" value="" style="endArrow=classic;html=1;rounded=0;entryX=1;entryY=0.5;entryDx=0;entryDy=0;" parent="1" target="UObVeRj9jSlFWoimbyzu-255" edge="1">
          <mxGeometry width="50" height="50" relative="1" as="geometry">
            <mxPoint x="994" y="498" as="sourcePoint" />
            <mxPoint x="1153" y="491" as="targetPoint" />
          </mxGeometry>
        </mxCell>
        <mxCell id="UObVeRj9jSlFWoimbyzu-301" value="LDPC&amp;nbsp;&lt;div&gt;Config&lt;/div&gt;" style="text;html=1;align=center;verticalAlign=middle;resizable=0;points=[];autosize=1;strokeColor=none;fillColor=none;rotation=0;" parent="1" vertex="1">
          <mxGeometry x="947" y="477.5" width="53" height="41" as="geometry" />
        </mxCell>
        <mxCell id="UObVeRj9jSlFWoimbyzu-302" value="" style="endArrow=classic;html=1;rounded=0;entryX=1;entryY=0.5;entryDx=0;entryDy=0;" parent="1" target="UObVeRj9jSlFWoimbyzu-255" edge="1">
          <mxGeometry width="50" height="50" relative="1" as="geometry">
            <mxPoint x="1039" y="498" as="sourcePoint" />
            <mxPoint x="915" y="498" as="targetPoint" />
          </mxGeometry>
        </mxCell>
        <mxCell id="UObVeRj9jSlFWoimbyzu-303" value="" style="endArrow=none;html=1;rounded=0;" parent="1" edge="1">
          <mxGeometry width="50" height="50" relative="1" as="geometry">
            <mxPoint x="383" y="555" as="sourcePoint" />
            <mxPoint x="393" y="541" as="targetPoint" />
          </mxGeometry>
        </mxCell>
        <mxCell id="UObVeRj9jSlFWoimbyzu-305" value="" style="endArrow=none;html=1;rounded=0;" parent="1" edge="1">
          <mxGeometry width="50" height="50" relative="1" as="geometry">
            <mxPoint x="468" y="597" as="sourcePoint" />
            <mxPoint x="478" y="583" as="targetPoint" />
          </mxGeometry>
        </mxCell>
        <mxCell id="UObVeRj9jSlFWoimbyzu-307" value="" style="endArrow=none;html=1;rounded=0;" parent="1" edge="1">
          <mxGeometry width="50" height="50" relative="1" as="geometry">
            <mxPoint x="758" y="576.62" as="sourcePoint" />
            <mxPoint x="768" y="562.62" as="targetPoint" />
          </mxGeometry>
        </mxCell>
        <mxCell id="UObVeRj9jSlFWoimbyzu-308" value="" style="endArrow=none;html=1;rounded=0;" parent="1" edge="1">
          <mxGeometry width="50" height="50" relative="1" as="geometry">
            <mxPoint x="907" y="555" as="sourcePoint" />
            <mxPoint x="917" y="541" as="targetPoint" />
          </mxGeometry>
        </mxCell>
        <mxCell id="UObVeRj9jSlFWoimbyzu-309" value="" style="endArrow=none;html=1;rounded=0;" parent="1" edge="1">
          <mxGeometry width="50" height="50" relative="1" as="geometry">
            <mxPoint x="853" y="597.5" as="sourcePoint" />
            <mxPoint x="863" y="583.5" as="targetPoint" />
          </mxGeometry>
        </mxCell>
        <mxCell id="UObVeRj9jSlFWoimbyzu-310" value="" style="endArrow=none;html=1;rounded=0;" parent="1" edge="1">
          <mxGeometry width="50" height="50" relative="1" as="geometry">
            <mxPoint x="1013" y="597.5" as="sourcePoint" />
            <mxPoint x="1023" y="583.5" as="targetPoint" />
          </mxGeometry>
        </mxCell>
        <mxCell id="UObVeRj9jSlFWoimbyzu-316" value="" style="group" parent="1" vertex="1" connectable="0">
          <mxGeometry x="312" y="583.5" width="36" height="14" as="geometry" />
        </mxCell>
        <mxCell id="UObVeRj9jSlFWoimbyzu-226" style="edgeStyle=orthogonalEdgeStyle;rounded=0;orthogonalLoop=1;jettySize=auto;html=1;exitX=0;exitY=0.5;exitDx=0;exitDy=0;strokeWidth=4;" parent="UObVeRj9jSlFWoimbyzu-316" edge="1">
          <mxGeometry relative="1" as="geometry">
            <mxPoint y="6.5" as="targetPoint" />
            <mxPoint x="36" y="7" as="sourcePoint" />
          </mxGeometry>
        </mxCell>
        <mxCell id="UObVeRj9jSlFWoimbyzu-311" value="" style="endArrow=none;html=1;rounded=0;" parent="UObVeRj9jSlFWoimbyzu-316" edge="1">
          <mxGeometry width="50" height="50" relative="1" as="geometry">
            <mxPoint x="20" y="14" as="sourcePoint" />
            <mxPoint x="30" as="targetPoint" />
          </mxGeometry>
        </mxCell>
        <mxCell id="UObVeRj9jSlFWoimbyzu-318" value="" style="endArrow=classic;html=1;rounded=0;strokeWidth=3;" parent="1" edge="1">
          <mxGeometry width="50" height="50" relative="1" as="geometry">
            <mxPoint x="390.5" y="11" as="sourcePoint" />
            <mxPoint x="502.5" y="12" as="targetPoint" />
          </mxGeometry>
        </mxCell>
        <mxCell id="UObVeRj9jSlFWoimbyzu-319" value="" style="endArrow=none;html=1;rounded=0;" parent="1" edge="1">
          <mxGeometry width="50" height="50" relative="1" as="geometry">
            <mxPoint x="439.5" y="19" as="sourcePoint" />
            <mxPoint x="449.5" y="5" as="targetPoint" />
          </mxGeometry>
        </mxCell>
        <mxCell id="UObVeRj9jSlFWoimbyzu-321" value="Simple Dual-port BRAM_TX/FIFO" style="rounded=0;whiteSpace=wrap;html=1;" parent="1" vertex="1">
          <mxGeometry x="510.5" y="-18" width="120" height="60" as="geometry" />
        </mxCell>
        <mxCell id="UObVeRj9jSlFWoimbyzu-322" value="BRAM Wr&amp;nbsp;&lt;span style=&quot;background-color: transparent; color: light-dark(rgb(0, 0, 0), rgb(255, 255, 255));&quot;&gt;Port&lt;/span&gt;" style="text;html=1;align=center;verticalAlign=middle;whiteSpace=wrap;rounded=0;" parent="1" vertex="1">
          <mxGeometry x="415.5" y="-18" width="60" height="30" as="geometry" />
        </mxCell>
        <mxCell id="UObVeRj9jSlFWoimbyzu-326" value="" style="endArrow=classic;html=1;rounded=0;" parent="1" edge="1">
          <mxGeometry width="50" height="50" relative="1" as="geometry">
            <mxPoint x="387.5" y="-125" as="sourcePoint" />
            <mxPoint x="502.5" y="-125" as="targetPoint" />
          </mxGeometry>
        </mxCell>
        <mxCell id="UObVeRj9jSlFWoimbyzu-328" value="axi_clk(250MHz&lt;span style=&quot;background-color: light-dark(#ffffff, var(--ge-dark-color, #121212)); color: light-dark(rgb(0, 0, 0), rgb(255, 255, 255));&quot;&gt;)&lt;/span&gt;" style="edgeLabel;html=1;align=center;verticalAlign=middle;resizable=0;points=[];" parent="UObVeRj9jSlFWoimbyzu-326" vertex="1" connectable="0">
          <mxGeometry x="0.0942" relative="1" as="geometry">
            <mxPoint x="-1" y="-11" as="offset" />
          </mxGeometry>
        </mxCell>
        <mxCell id="UObVeRj9jSlFWoimbyzu-329" value="clk_wiz" style="rounded=0;whiteSpace=wrap;html=1;" parent="1" vertex="1">
          <mxGeometry x="525.5" y="-147" width="97" height="36" as="geometry" />
        </mxCell>
        <mxCell id="UObVeRj9jSlFWoimbyzu-330" value="" style="endArrow=classic;html=1;rounded=0;" parent="1" edge="1">
          <mxGeometry width="50" height="50" relative="1" as="geometry">
            <mxPoint x="635.5" y="-126" as="sourcePoint" />
            <mxPoint x="745.5" y="-126" as="targetPoint" />
          </mxGeometry>
        </mxCell>
        <mxCell id="UObVeRj9jSlFWoimbyzu-331" value="dec_clk" style="edgeLabel;html=1;align=center;verticalAlign=middle;resizable=0;points=[];" parent="UObVeRj9jSlFWoimbyzu-330" vertex="1" connectable="0">
          <mxGeometry x="0.0942" relative="1" as="geometry">
            <mxPoint x="-1" y="-11" as="offset" />
          </mxGeometry>
        </mxCell>
        <mxCell id="UObVeRj9jSlFWoimbyzu-332" value="LDPCDecoderTop" style="rounded=0;whiteSpace=wrap;html=1;" parent="1" vertex="1">
          <mxGeometry x="747.5" y="-158" width="191" height="268" as="geometry" />
        </mxCell>
        <mxCell id="UObVeRj9jSlFWoimbyzu-333" value="" style="endArrow=classic;html=1;rounded=0;strokeWidth=3;" parent="1" edge="1">
          <mxGeometry width="50" height="50" relative="1" as="geometry">
            <mxPoint x="645.5" y="12" as="sourcePoint" />
            <mxPoint x="746.5" y="12" as="targetPoint" />
          </mxGeometry>
        </mxCell>
        <mxCell id="UObVeRj9jSlFWoimbyzu-334" value="" style="endArrow=none;html=1;rounded=0;" parent="1" edge="1">
          <mxGeometry width="50" height="50" relative="1" as="geometry">
            <mxPoint x="686.5" y="19" as="sourcePoint" />
            <mxPoint x="696.5" y="5" as="targetPoint" />
          </mxGeometry>
        </mxCell>
        <mxCell id="UObVeRj9jSlFWoimbyzu-335" value="&lt;span style=&quot;font-family: SFMono-Regular, Menlo, Monaco, Consolas, &amp;quot;Liberation Mono&amp;quot;, &amp;quot;Courier New&amp;quot;, monospace; font-size: 13px; text-align: left; background-color: rgb(255, 255, 255);&quot;&gt;$$256bits$$&lt;/span&gt;" style="text;html=1;align=center;verticalAlign=middle;whiteSpace=wrap;rounded=0;fontColor=default;" parent="1" vertex="1">
          <mxGeometry x="661.5" y="-22" width="60" height="30" as="geometry" />
        </mxCell>
        <mxCell id="UObVeRj9jSlFWoimbyzu-336" value="" style="edgeStyle=segmentEdgeStyle;endArrow=classic;html=1;curved=0;rounded=0;endSize=8;startSize=8;strokeWidth=1;" parent="1" edge="1">
          <mxGeometry width="50" height="50" relative="1" as="geometry">
            <mxPoint x="407.5" y="12" as="sourcePoint" />
            <mxPoint x="506.5" y="-57" as="targetPoint" />
            <Array as="points">
              <mxPoint x="407.5" y="11" />
              <mxPoint x="407.5" y="-43" />
            </Array>
          </mxGeometry>
        </mxCell>
        <mxCell id="UObVeRj9jSlFWoimbyzu-341" value="DMUX&lt;div&gt;（CDC）&lt;/div&gt;" style="rounded=0;whiteSpace=wrap;html=1;" parent="1" vertex="1">
          <mxGeometry x="514.5" y="-78" width="119" height="45" as="geometry" />
        </mxCell>
        <mxCell id="UObVeRj9jSlFWoimbyzu-343" value="" style="endArrow=classic;html=1;rounded=0;strokeWidth=1;" parent="1" edge="1">
          <mxGeometry width="50" height="50" relative="1" as="geometry">
            <mxPoint x="638.5" y="-54" as="sourcePoint" />
            <mxPoint x="727.5" y="-54" as="targetPoint" />
          </mxGeometry>
        </mxCell>
        <mxCell id="UObVeRj9jSlFWoimbyzu-344" value="LDPC&amp;nbsp;&lt;div&gt;Config&lt;/div&gt;" style="text;html=1;align=center;verticalAlign=middle;resizable=0;points=[];autosize=1;strokeColor=none;fillColor=none;rotation=0;" parent="1" vertex="1">
          <mxGeometry x="665.5" y="-76" width="53" height="41" as="geometry" />
        </mxCell>
        <mxCell id="UObVeRj9jSlFWoimbyzu-350" value="Simple Dual-port&lt;div&gt;BRAM_RX/FIFO&lt;/div&gt;" style="rounded=0;whiteSpace=wrap;html=1;" parent="1" vertex="1">
          <mxGeometry x="510.5" y="55" width="120" height="60" as="geometry" />
        </mxCell>
        <mxCell id="UObVeRj9jSlFWoimbyzu-351" value="" style="endArrow=classic;html=1;rounded=0;strokeWidth=3;" parent="1" edge="1">
          <mxGeometry width="50" height="50" relative="1" as="geometry">
            <mxPoint x="737.5" y="85" as="sourcePoint" />
            <mxPoint x="641" y="84.65999999999997" as="targetPoint" />
          </mxGeometry>
        </mxCell>
        <mxCell id="UObVeRj9jSlFWoimbyzu-352" value="" style="endArrow=none;html=1;rounded=0;" parent="1" edge="1">
          <mxGeometry width="50" height="50" relative="1" as="geometry">
            <mxPoint x="686.5" y="92" as="sourcePoint" />
            <mxPoint x="696.5" y="78" as="targetPoint" />
          </mxGeometry>
        </mxCell>
        <mxCell id="UObVeRj9jSlFWoimbyzu-353" value="&lt;span style=&quot;font-family: SFMono-Regular, Menlo, Monaco, Consolas, &amp;quot;Liberation Mono&amp;quot;, &amp;quot;Courier New&amp;quot;, monospace; font-size: 13px; text-align: left; background-color: rgb(255, 255, 255);&quot;&gt;$$128bits$$&lt;/span&gt;" style="text;html=1;align=center;verticalAlign=middle;whiteSpace=wrap;rounded=0;fontColor=default;" parent="1" vertex="1">
          <mxGeometry x="664.5" y="52" width="60" height="30" as="geometry" />
        </mxCell>
        <mxCell id="UObVeRj9jSlFWoimbyzu-355" value="" style="endArrow=classic;html=1;rounded=0;strokeWidth=3;" parent="1" edge="1">
          <mxGeometry width="50" height="50" relative="1" as="geometry">
            <mxPoint x="508.62" y="85.10000000000002" as="sourcePoint" />
            <mxPoint x="387.5" y="85" as="targetPoint" />
          </mxGeometry>
        </mxCell>
        <mxCell id="UObVeRj9jSlFWoimbyzu-356" value="BRAM Rd&amp;nbsp;&lt;span style=&quot;background-color: transparent; color: light-dark(rgb(0, 0, 0), rgb(255, 255, 255));&quot;&gt;Port&lt;/span&gt;" style="text;html=1;align=center;verticalAlign=middle;whiteSpace=wrap;rounded=0;" parent="1" vertex="1">
          <mxGeometry x="419" y="52" width="60" height="30" as="geometry" />
        </mxCell>
        <mxCell id="UObVeRj9jSlFWoimbyzu-357" value="" style="endArrow=none;html=1;rounded=0;" parent="1" edge="1">
          <mxGeometry width="50" height="50" relative="1" as="geometry">
            <mxPoint x="445.5" y="92" as="sourcePoint" />
            <mxPoint x="455.5" y="78" as="targetPoint" />
          </mxGeometry>
        </mxCell>
        <mxCell id="UObVeRj9jSlFWoimbyzu-358" value="&lt;span style=&quot;font-family: SFMono-Regular, Menlo, Monaco, Consolas, &amp;quot;Liberation Mono&amp;quot;, &amp;quot;Courier New&amp;quot;, monospace; font-size: 13px; text-align: left; background-color: rgb(255, 255, 255);&quot;&gt;$$256bits$$&lt;/span&gt;" style="text;html=1;align=center;verticalAlign=middle;whiteSpace=wrap;rounded=0;fontColor=default;" parent="1" vertex="1">
          <mxGeometry x="419" y="11" width="60" height="30" as="geometry" />
        </mxCell>
        <mxCell id="UObVeRj9jSlFWoimbyzu-359" value="&lt;span style=&quot;font-family: SFMono-Regular, Menlo, Monaco, Consolas, &amp;quot;Liberation Mono&amp;quot;, &amp;quot;Courier New&amp;quot;, monospace; font-size: 13px; text-align: left; background-color: rgb(255, 255, 255);&quot;&gt;$$128bits$$&lt;/span&gt;" style="text;html=1;align=center;verticalAlign=middle;whiteSpace=wrap;rounded=0;fontColor=default;" parent="1" vertex="1">
          <mxGeometry x="420.5" y="84" width="60" height="30" as="geometry" />
        </mxCell>
        <mxCell id="UObVeRj9jSlFWoimbyzu-361" value="&lt;h1 style=&quot;margin-top: 0px;&quot;&gt;DMUX&lt;/h1&gt;&lt;p&gt;data_valid = bram_we &amp;amp;&amp;amp; bram_waddr == 0&lt;/p&gt;" style="text;html=1;whiteSpace=wrap;overflow=hidden;rounded=0;" parent="1" vertex="1">
          <mxGeometry x="1043.5" y="-146" width="266" height="120" as="geometry" />
        </mxCell>
        <mxCell id="UObVeRj9jSlFWoimbyzu-339" value="1st block&lt;div&gt;ctrl signal&lt;/div&gt;" style="text;html=1;align=center;verticalAlign=middle;whiteSpace=wrap;rounded=0;" parent="1" vertex="1">
          <mxGeometry x="427" y="-73" width="60" height="30" as="geometry" />
        </mxCell>
        <mxCell id="UObVeRj9jSlFWoimbyzu-369" value="" style="endArrow=none;dashed=1;html=1;dashPattern=1 3;strokeWidth=2;rounded=0;" parent="1" edge="1">
          <mxGeometry width="50" height="50" relative="1" as="geometry">
            <mxPoint x="572" y="144" as="sourcePoint" />
            <mxPoint x="576.5" y="-227" as="targetPoint" />
          </mxGeometry>
        </mxCell>
        <mxCell id="UObVeRj9jSlFWoimbyzu-370" value="200MHz" style="text;html=1;align=center;verticalAlign=middle;whiteSpace=wrap;rounded=0;" parent="1" vertex="1">
          <mxGeometry x="523" y="-218" width="181" height="30" as="geometry" />
        </mxCell>
        <mxCell id="UObVeRj9jSlFWoimbyzu-371" value="250MHz" style="text;html=1;align=center;verticalAlign=middle;whiteSpace=wrap;rounded=0;" parent="1" vertex="1">
          <mxGeometry x="511.5" y="-218" width="60" height="30" as="geometry" />
        </mxCell>
        <mxCell id="UObVeRj9jSlFWoimbyzu-372" value="这是译码器顶层的框架图，利用xdma接口来连接pcie总线与译码器。首先将pcie总线利用xdma IP转化为axi总线，并连接到bram_ctrl，用于控制译码器的数据输入与输出。&lt;div&gt;先来看控制流，AXI总线的宽度为256bit，我们规定第一个256bit包含了控制信息，其余的256bit都是数据。由于一开始设计时译码器的频率定为200MHz，而AXI总线传来的时钟只有100MHz和250MHz可选，所以需要做控制信号的多比特跨时钟域处理，利用DMUX实现。&lt;/div&gt;&lt;div&gt;控制信号传输完毕后，译码器端就知道了什么时候译码数据能够全部写入BRAM，译码器的控制模块会定时从BRAM_TX中读取数据进行译码，译码结束后将数据写入BRAM_RX。当一次译码结束时，会将结束信息包装为第一个数据块写入BRAM_RX，PC端可以轮询读取BRAM_RX的第一个数据块，来确定是否计算完成。若计算完成后，就可以读取译码结果。&lt;/div&gt;" style="text;html=1;align=left;verticalAlign=middle;whiteSpace=wrap;rounded=0;" parent="1" vertex="1">
          <mxGeometry x="1492" y="-101" width="271" height="282" as="geometry" />
        </mxCell>
        <mxCell id="UObVeRj9jSlFWoimbyzu-373" value="XDMA&lt;div&gt;Wrapper&lt;/div&gt;" style="rounded=0;whiteSpace=wrap;html=1;" parent="1" vertex="1">
          <mxGeometry x="267.5" y="-170" width="120" height="289" as="geometry" />
        </mxCell>
        <mxCell id="UObVeRj9jSlFWoimbyzu-375" value="pcie" style="text;html=1;align=center;verticalAlign=middle;whiteSpace=wrap;rounded=0;" parent="1" vertex="1">
          <mxGeometry x="205.5" y="-54" width="60" height="30" as="geometry" />
        </mxCell>
        <mxCell id="UObVeRj9jSlFWoimbyzu-376" value="" style="endArrow=classic;startArrow=classic;html=1;rounded=0;" parent="1" edge="1">
          <mxGeometry width="50" height="50" relative="1" as="geometry">
            <mxPoint x="200.5" y="-22.690000000000055" as="sourcePoint" />
            <mxPoint x="268.5" y="-22.690000000000055" as="targetPoint" />
          </mxGeometry>
        </mxCell>
        <mxCell id="UObVeRj9jSlFWoimbyzu-377" value="" style="endArrow=none;dashed=1;html=1;dashPattern=1 3;strokeWidth=2;rounded=0;" parent="1" edge="1">
          <mxGeometry width="50" height="50" relative="1" as="geometry">
            <mxPoint x="332" y="242" as="sourcePoint" />
            <mxPoint x="721" y="131" as="targetPoint" />
          </mxGeometry>
        </mxCell>
        <mxCell id="UObVeRj9jSlFWoimbyzu-378" value="" style="endArrow=none;dashed=1;html=1;dashPattern=1 3;strokeWidth=2;rounded=0;" parent="1" edge="1">
          <mxGeometry width="50" height="50" relative="1" as="geometry">
            <mxPoint x="1014" y="225" as="sourcePoint" />
            <mxPoint x="941" y="128" as="targetPoint" />
          </mxGeometry>
        </mxCell>
        <mxCell id="ifxg2KiUCp8ChbgqDxgd-1" value="Ctrl&lt;div&gt;Reg&lt;/div&gt;" style="rounded=0;whiteSpace=wrap;html=1;" vertex="1" parent="1">
          <mxGeometry x="521.12" y="-74.5" width="25.88" height="38" as="geometry" />
        </mxCell>
        <mxCell id="ifxg2KiUCp8ChbgqDxgd-2" value="PC" style="rounded=0;whiteSpace=wrap;html=1;fontStyle=1" vertex="1" parent="1">
          <mxGeometry x="79" y="-144" width="120" height="230" as="geometry" />
        </mxCell>
      </root>
    </mxGraphModel>
  </diagram>
</mxfile>
